# This file uses centimeters as units for non-parametric coordinates.

mtllib cardObj.mtl
g default
v -1.713073 -0.004894 1.223624
v -1.640625 -0.005000 1.250000
v 1.640625 -0.005000 1.250000
v 1.713073 -0.004894 1.223624
v -1.713073 0.004894 1.223624
v -1.640625 0.005000 1.250000
v 1.640625 0.005000 1.250000
v 1.713073 0.004894 1.223624
v -1.750000 0.005000 1.125000
v -1.640625 0.005000 1.125000
v 1.640625 0.005000 1.125000
v 1.750000 0.005000 1.125000
v -1.750000 0.005000 -1.125000
v -1.640625 0.005000 -1.125000
v 1.640625 0.005000 -1.125000
v 1.750000 0.005000 -1.125000
v -1.713073 0.004894 -1.223624
v -1.640625 0.005000 -1.250000
v 1.640625 0.005000 -1.250000
v 1.713073 0.004894 -1.223624
v -1.713073 -0.004894 -1.223624
v -1.640625 -0.005000 -1.250000
v 1.640625 -0.005000 -1.250000
v 1.713073 -0.004894 -1.223624
v -1.750000 -0.005000 -1.125000
v -1.640625 -0.005000 -1.125000
v 1.640625 -0.005000 -1.125000
v 1.750000 -0.005000 -1.125000
v -1.750000 -0.005000 1.125000
v -1.640625 -0.005000 1.125000
v 1.640625 -0.005000 1.125000
v 1.750000 -0.005000 1.125000
vt 0.969578 0.227720
vt 0.205669 0.523674
vt 0.205669 0.027821
vt 0.192671 0.032553
vt 0.794331 0.523674
vt 0.794331 0.027821
vt 0.807329 0.528406
vt 0.969615 0.232208
vt 0.205669 0.050246
vt 0.966070 0.232208
vt 0.794331 0.050246
vt 0.966107 0.227720
vt 0.205669 0.453901
vt 0.969615 0.500000
vt 0.794331 0.453901
vt 0.966070 0.500000
vt 0.969578 0.504488
vt 0.966107 0.504488
vt 0.966107 0.047124
vt 0.966070 0.042636
vt 0.205669 0.972179
vt 0.192671 0.967447
vt 0.794331 0.972179
vt 0.969615 0.042636
vt 0.205669 0.949754
vt 0.969578 0.047124
vt 0.794331 0.949754
vt 0.205669 0.546099
vt 0.794331 0.546099
vt 0.966107 0.685084
vt 0.813953 0.546099
vt 0.969578 0.685084
vt 0.186046 0.546099
vt 0.192671 0.528406
vt 0.813953 0.949754
vt 0.186046 0.949754
vt 0.807329 0.967447
vt 0.969615 0.677963
vt 0.813953 0.453901
vt 0.807329 0.471594
vt 0.186046 0.453901
vt 0.192671 0.471594
vt 0.813953 0.050246
vt 0.186046 0.050246
vt 0.807329 0.032553
vt 0.966070 0.677963
vt 0.966070 0.511609
vt 0.969615 0.511609
vt 0.794331 0.476326
vt 0.205669 0.476326
vt 0.969615 0.054244
vt 0.966070 0.054244
vt 0.966070 0.220599
vt 0.969615 0.220599
vt 0.966070 0.957364
vt 0.966070 0.689572
vt 0.969615 0.689572
vt 0.969615 0.957364
vn -0.342108 0.000000 0.939661
vn -0.005704 0.000000 0.999984
vn -0.005704 0.000000 0.999984
vn -0.342108 0.000000 0.939661
vn 0.005704 0.000000 0.999984
vn 0.005704 0.000000 0.999984
vn 0.342108 0.000000 0.939661
vn 0.342108 0.000000 0.939661
vn -0.000665 1.000000 0.000582
vn -0.000012 1.000000 0.000010
vn -0.000001 1.000000 0.000001
vn -0.000022 1.000000 0.000019
vn 0.000012 1.000000 0.000010
vn 0.000001 1.000000 0.000001
vn 0.000665 1.000000 0.000582
vn 0.000022 1.000000 0.000019
vn -0.000001 1.000000 -0.000001
vn -0.000022 1.000000 -0.000019
vn 0.000001 1.000000 -0.000001
vn 0.000022 1.000000 -0.000019
vn -0.000012 1.000000 -0.000010
vn -0.000665 1.000000 -0.000582
vn 0.000012 1.000000 -0.000010
vn 0.000665 1.000000 -0.000582
vn -0.342108 0.000000 -0.939661
vn -0.005704 0.000000 -0.999984
vn -0.005704 0.000000 -0.999984
vn -0.342108 0.000000 -0.939661
vn 0.005704 0.000000 -0.999984
vn 0.005704 0.000000 -0.999984
vn 0.342108 0.000000 -0.939661
vn 0.342108 0.000000 -0.939661
vn -0.000665 -1.000000 -0.000582
vn -0.000012 -1.000000 -0.000010
vn -0.000001 -1.000000 -0.000001
vn -0.000022 -1.000000 -0.000019
vn 0.000012 -1.000000 -0.000010
vn 0.000001 -1.000000 -0.000001
vn 0.000665 -1.000000 -0.000582
vn 0.000022 -1.000000 -0.000019
vn -0.000001 -1.000000 0.000001
vn -0.000022 -1.000000 0.000019
vn 0.000001 -1.000000 0.000001
vn 0.000022 -1.000000 0.000019
vn -0.000012 -1.000000 0.000010
vn -0.000665 -1.000000 0.000582
vn 0.000012 -1.000000 0.000010
vn 0.000665 -1.000000 0.000582
vn 0.999914 0.000000 -0.013146
vn 0.936506 0.000000 -0.350652
vn 0.936506 0.000000 -0.350652
vn 0.999914 0.000000 -0.013146
vn 0.999914 0.000000 0.013146
vn 0.999914 0.000000 0.013146
vn 0.936506 0.000000 0.350652
vn 0.936506 0.000000 0.350652
vn -0.936506 0.000000 -0.350652
vn -0.999914 0.000006 -0.013146
vn -0.999914 0.000006 -0.013146
vn -0.936506 0.000000 -0.350652
vn -0.999914 0.000006 0.013146
vn -0.999914 0.000006 0.013146
vn -0.936506 0.000000 0.350652
vn -0.936506 0.000000 0.350652
s 1
g normalCard
usemtl initialShadingGroup
f 1/1/1 2/8/2 6/10/3 5/12/4
f 6/10/3 2/8/2 3/14/5 7/16/6
f 3/14/5 4/17/7 8/18/8 7/16/6
s 2
f 5/4/9 6/3/10 10/9/11 9/44/12
f 10/9/11 6/3/10 7/6/13 11/11/14
f 7/6/13 8/45/15 12/43/16 11/11/14
f 10/9/11 14/13/17 13/41/18 9/44/12
f 14/13/17 10/9/11 11/11/14 15/15/19
f 12/43/16 16/39/20 15/15/19 11/11/14
f 13/41/18 14/13/17 18/50/21 17/42/22
f 18/50/21 14/13/17 15/15/19 19/49/23
f 15/15/19 16/39/20 20/40/24 19/49/23
s 3
f 17/19/25 18/20/26 22/24/27 21/26/28
f 22/58/27 18/55/26 19/56/29 23/57/30
f 19/56/29 20/30/31 24/32/32 23/57/30
s 4
f 21/22/33 22/21/34 26/25/35 25/36/36
f 26/25/35 22/21/34 23/23/37 27/27/38
f 23/23/37 24/37/39 28/35/40 27/27/38
f 26/25/35 30/28/41 29/33/42 25/36/36
f 30/28/41 26/25/35 27/27/38 31/29/43
f 28/35/40 32/31/44 31/29/43 27/27/38
f 29/33/42 30/28/41 2/2/45 1/34/46
f 2/2/45 30/28/41 31/29/43 3/5/47
f 31/29/43 32/31/44 4/7/48 3/5/47
s 5
f 28/38/49 24/32/50 20/30/51 16/46/52
f 12/47/53 32/48/54 28/38/49 16/46/52
f 4/17/55 32/48/54 12/47/53 8/18/56
s 6
f 21/26/57 25/51/58 13/52/59 17/19/60
f 9/53/61 13/52/59 25/51/58 29/54/62
f 29/54/62 1/1/63 5/12/64 9/53/61
