# This file uses centimeters as units for non-parametric coordinates.

mtllib fire03.mtl
g default
v -0.211993 0.448091 -0.310343
v 0.035189 0.234118 0.534802
v 0.536766 0.312497 0.000000
v -0.211993 1.184739 -0.482951
v -0.094642 1.011094 0.194651
v 0.361337 1.580153 -0.000000
v 0.000000 0.000000 0.000000
v 0.296090 2.221302 0.000000
vt 0.000000 0.333333
vt 0.333333 0.333333
vt 0.666667 0.333333
vt 1.000000 0.333333
vt 0.000000 0.666667
vt 0.333333 0.666667
vt 0.666667 0.666667
vt 1.000000 0.666667
vt 0.166667 0.000000
vt 0.500000 0.000000
vt 0.833333 0.000000
vt 0.166667 1.000000
vt 0.500000 1.000000
vt 0.833333 1.000000
vn -0.972796 -0.004980 0.231612
vn -0.972796 -0.004980 0.231612
vn -0.972796 -0.004980 0.231612
vn -0.972796 -0.004980 0.231612
vn 0.496224 0.214062 0.841391
vn 0.496224 0.214062 0.841391
vn 0.496224 0.214062 0.841391
vn 0.496225 0.214062 0.841391
vn 0.518384 -0.028232 -0.854682
vn 0.518384 -0.028232 -0.854682
vn 0.518384 -0.028232 -0.854682
vn 0.518384 -0.028232 -0.854682
vn -0.931905 -0.305726 0.195154
vn -0.931905 -0.305726 0.195154
vn -0.931905 -0.305726 0.195154
vn 0.475589 -0.816903 0.326320
vn 0.475589 -0.816903 0.326320
vn 0.475589 -0.816903 0.326320
vn 0.267683 -0.459789 -0.846723
vn 0.267683 -0.459789 -0.846723
vn 0.267683 -0.459789 -0.846723
vn -0.910954 0.333224 0.243158
vn -0.910954 0.333224 0.243158
vn -0.910954 0.333224 0.243158
vn 0.353990 0.036024 0.934555
vn 0.353990 0.036024 0.934555
vn 0.353990 0.036024 0.934555
vn 0.617281 0.062818 -0.784231
vn 0.617281 0.062818 -0.784231
vn 0.617281 0.062818 -0.784231
s off
g fire03
usemtl initialShadingGroup
f 1/1/1 2/2/2 5/6/3 4/5/4
f 2/2/5 3/3/6 6/7/7 5/6/8
f 3/3/9 1/4/10 4/8/11 6/7/12
f 2/2/13 1/1/14 7/9/15
f 3/3/16 2/2/17 7/10/18
f 1/4/19 3/3/20 7/11/21
f 4/5/22 5/6/23 8/12/24
f 5/6/25 6/7/26 8/13/27
f 6/7/28 4/8/29 8/14/30
