# This file uses centimeters as units for non-parametric coordinates.

mtllib fire02.mtl
g default
v -0.211993 0.448091 -0.310343
v 0.035189 0.427795 0.494789
v 0.645006 0.745040 -0.000000
v -0.211993 1.330974 -0.182813
v -0.211993 1.254960 0.494789
v 0.361337 1.580153 -0.000000
v 0.000000 0.000000 0.000000
v 0.000000 2.000000 0.000000
vt 0.000000 0.333333
vt 0.333333 0.333333
vt 0.666667 0.333333
vt 1.000000 0.333333
vt 0.000000 0.666667
vt 0.333333 0.666667
vt 0.666667 0.666667
vt 1.000000 0.666667
vt 0.166667 0.000000
vt 0.500000 0.000000
vt 0.833333 0.000000
vt 0.166667 1.000000
vt 0.500000 1.000000
vt 0.833333 1.000000
vn -0.976404 -0.152536 0.152866
vn -0.976404 -0.152536 0.152866
vn -0.976404 -0.152536 0.152866
vn -0.976404 -0.152536 0.152866
vn 0.570711 0.182257 0.800669
vn 0.570711 0.182257 0.800669
vn 0.570711 0.182257 0.800669
vn 0.570711 0.182257 0.800669
vn 0.283329 0.117436 -0.951805
vn 0.283329 0.117436 -0.951805
vn 0.283329 0.117436 -0.951805
vn 0.283329 0.117436 -0.951805
vn -0.928287 -0.246090 0.278788
vn -0.928287 -0.246089 0.278788
vn -0.928287 -0.246090 0.278788
vn 0.672922 -0.582572 0.455835
vn 0.672922 -0.582572 0.455835
vn 0.672922 -0.582572 0.455835
vn 0.426932 -0.369610 -0.825299
vn 0.426932 -0.369610 -0.825298
vn 0.426932 -0.369610 -0.825298
vn -0.955327 0.293710 0.032948
vn -0.955327 0.293710 0.032948
vn -0.955327 0.293710 0.032948
vn 0.460571 0.396386 0.794200
vn 0.460571 0.396386 0.794200
vn 0.460571 0.396386 0.794200
vn 0.221893 0.190970 -0.956187
vn 0.221893 0.190970 -0.956187
vn 0.221893 0.190970 -0.956187
s off
g fire02
usemtl initialShadingGroup
f 1/1/1 2/2/2 5/6/3 4/5/4
f 2/2/5 3/3/6 6/7/7 5/6/8
f 3/3/9 1/4/10 4/8/11 6/7/12
f 2/2/13 1/1/14 7/9/15
f 3/3/16 2/2/17 7/10/18
f 1/4/19 3/3/20 7/11/21
f 4/5/22 5/6/23 8/12/24
f 5/6/25 6/7/26 8/13/27
f 6/7/28 4/8/29 8/14/30
