# This file uses centimeters as units for non-parametric coordinates.

mtllib obelisk_02.mtl
g default
v -3.565480 0.028629 3.270171
v -3.540975 0.000000 3.279530
v -3.533190 0.028867 3.306836
v 0.652909 0.000000 4.378773
v 0.712893 0.000000 4.383527
v 0.711426 0.029193 4.415856
v 0.653106 0.028818 4.414365
v -2.686609 12.321242 2.490570
v -2.685760 12.275088 2.538501
v -2.659348 12.294892 2.574358
v -2.662015 12.338172 2.547930
v 0.753124 13.562167 3.385152
v 0.805621 13.528476 3.385120
v 0.787157 13.595934 3.356635
v 0.739180 13.611592 3.360326
v -2.684719 13.472430 -2.267509
v -2.686519 13.508488 -2.221437
v -2.666749 13.557642 -2.259361
v -2.661814 13.527388 -2.298164
v 0.746188 16.550743 -3.346224
v 0.796408 16.557779 -3.348889
v 0.806305 16.528886 -3.378309
v 0.752864 16.517795 -3.382278
v -2.905715 0.029219 -3.025480
v -2.875737 0.000000 -3.036439
v -2.889285 0.000000 -2.970743
v -2.918994 0.029235 -2.968221
v 1.873199 0.000000 -4.540792
v 1.910083 0.028697 -4.547290
v 1.947135 0.027657 -4.504964
v 1.944677 0.000000 -4.453887
v 1.894871 0.000000 -4.486255
v -2.359757 6.225143 2.538543
v -2.355872 6.195978 2.487625
v -2.362578 6.075712 2.540556
v -2.341981 6.024295 2.590494
v -2.334233 6.101848 2.588339
v 2.880563 0.000000 3.935471
v 2.904308 0.028666 3.933211
v 2.871587 0.029235 3.968632
v 2.003326 4.041638 4.336121
v 2.013244 3.979329 4.338595
v 2.040822 4.002718 4.304589
v 2.034756 4.062646 4.299894
v -2.672709 13.459430 0.199606
v -2.672792 13.446902 0.257329
v -2.656050 13.494591 0.277610
v -2.654847 13.509698 0.220983
v 2.007006 11.871559 2.984071
v 2.039612 11.869116 2.941006
v 2.016251 11.935309 2.956232
v 2.335646 14.435074 1.290304
v 2.340152 14.494835 1.239169
v 2.312044 14.532426 1.242887
v 2.308780 14.501709 1.287505
v -2.355504 7.469653 -3.597904
v -2.361003 7.575411 -3.598089
v -2.325959 7.440021 -3.661567
v -2.325440 7.362320 -3.676638
v -2.362746 7.204923 -3.670067
v -2.356594 7.402992 -3.630251
v 2.330073 15.338476 -2.555528
v 2.354288 15.289934 -2.546452
v 2.328402 15.310879 -2.589167
v 2.354389 2.390518 -2.546452
v 2.358560 2.307876 -2.547825
v 2.335067 2.309704 -2.597879
v 2.331221 2.393640 -2.593593
v -3.901633 0.028730 0.527342
v -3.897086 0.028866 0.469982
v -3.870296 0.000000 0.465152
v -3.878043 0.000000 0.525154
v 2.557416 0.029053 -2.836321
v 2.573013 0.029090 -2.779918
v 2.541803 0.000000 -2.803869
v 3.247773 0.028919 0.686974
v 3.250314 0.028707 0.745400
v 3.226878 0.000000 0.742912
v 3.221534 0.000000 0.681784
v 0.041373 5.262322 -4.376205
v 0.004631 5.344380 -4.363625
v 0.012714 5.414180 -4.351411
v 0.060942 5.364600 -4.343047
v 0.086534 5.261988 -4.340687
v 0.040850 0.000000 -0.020948
v 0.035517 0.000000 0.037821
v -0.024534 0.000000 0.032642
v -0.020295 0.000000 -0.026913
v 0.018206 2.846733 4.730462
v 0.024578 2.762354 4.729871
v 0.069924 2.759957 4.747099
v 0.070324 2.828737 4.745122
v -0.828120 15.456848 1.234181
v -0.822999 15.433133 1.280383
v -0.763487 15.437528 1.296387
v -0.780268 15.468317 1.243761
v 2.351513 4.912757 0.093030
v 2.357001 4.853374 0.094791
v 2.360235 4.829020 0.039552
v 2.353653 4.903252 0.032917
v -2.356198 8.236983 0.087388
v -2.355264 8.243989 0.026439
v -2.359219 8.186165 0.033264
v -2.361095 8.156749 0.093000
v -2.327646 2.001766 -4.572157
v -2.383649 2.016495 -4.562468
v -2.326038 2.078771 -4.558463
v -0.352155 3.815606 -4.769107
v -0.404241 3.760384 -4.776913
v -0.404846 3.831437 -4.756274
v -0.003735 0.000000 -5.577285
v -0.031426 0.028781 -5.594526
v 0.022781 0.028460 -5.588271
v -2.572219 0.029003 -4.870088
v -2.538746 0.028742 -4.906999
v -2.544552 0.000000 -4.880786
v -2.444737 10.656803 0.507561
v -2.440010 10.614277 0.476191
v -2.461991 10.577359 0.510962
v -2.468565 10.621401 0.554610
v -2.439790 10.266581 -0.308220
v -2.438569 10.270112 -0.363487
v -2.460421 10.215796 -0.359304
v -2.460815 10.217890 -0.300096
v -2.556545 11.679296 0.500551
v -2.553238 11.633194 0.528466
v -2.578466 11.653309 0.577170
v -2.582211 11.706183 0.550827
v -2.552149 12.070050 -0.302523
v -2.551922 12.055924 -0.246655
v -2.577359 12.101498 -0.233456
v -2.577469 12.116749 -0.290187
v -2.438792 10.800656 -1.377609
v -2.443239 10.845356 -1.402233
v -2.467487 10.819161 -1.455738
v -2.461845 10.769923 -1.418622
v -2.552783 12.052886 -1.149760
v -2.556760 12.086428 -1.110887
v -2.582332 12.134025 -1.142812
v -2.579191 12.097853 -1.188721
v -2.207513 10.777079 0.297984
v -2.186471 10.776712 0.249736
v -2.205524 10.733164 0.269032
v -2.184714 10.521813 -0.388260
v -2.206574 10.468582 -0.386152
v -2.205355 10.467141 -0.331123
v -2.184720 10.520002 -0.329777
v -2.293870 11.569829 0.286123
v -2.266715 11.528010 0.265835
v -2.290480 11.523692 0.313970
v -2.290126 11.870773 -0.339513
v -2.265090 11.823886 -0.343667
v -2.264922 11.805848 -0.285732
v -2.290345 11.856987 -0.283582
v -2.185599 10.916293 -1.142419
v -2.207743 10.923346 -1.189298
v -2.206746 10.877505 -1.167793
v -2.291939 11.851462 -0.995246
v -2.267666 11.836239 -0.950072
v -2.293636 11.883245 -0.955024
vt 0.499093 0.999108
vt 0.251374 0.000055
vt 0.623590 0.875878
vt 0.372993 0.250000
vt 0.246792 0.250000
vt 0.125000 0.244766
vt 0.375000 0.749841
vt 0.748203 0.248889
vt 0.873612 0.012678
vt 0.873930 0.249280
vt 0.873729 0.000067
vt 0.375927 0.999108
vt 0.375193 0.998579
vt 0.373699 0.000056
vt 0.501177 0.998821
vt 0.501377 1.000000
vt 0.623303 0.998820
vt 0.622994 1.000000
vt 0.499153 0.000124
vt 0.375000 0.246019
vt 0.375000 0.254055
vt 0.375000 0.373900
vt 0.498949 0.251229
vt 0.126871 0.250000
vt 0.375000 0.377015
vt 0.375041 0.501608
vt 0.376602 0.736495
vt 0.375093 0.731239
vt 0.498968 0.500826
vt 0.376521 0.750000
vt 0.376005 0.750980
vt 0.248383 0.000050
vt 0.125000 0.000151
vt 0.125000 0.011595
vt 0.499052 0.750980
vt 0.373527 0.011872
vt 0.376043 0.012694
vt 0.499259 0.011901
vt 0.623342 0.000087
vt 0.623357 0.011803
vt 0.501906 0.012723
vt 0.623023 0.012741
vt 0.626639 0.248889
vt 0.253012 0.250000
vt 0.376342 0.376544
vt 0.499321 0.373948
vt 0.623047 0.251345
vt 0.750934 0.249280
vt 0.748900 0.012865
vt 0.625000 0.376210
vt 0.623245 0.373942
vt 0.501142 0.375746
vt 0.125000 0.015062
vt 0.376813 0.738070
vt 0.498824 0.736637
vt 0.375000 0.738249
vt 0.126371 0.011930
vt 0.623141 0.500709
vt 0.625000 0.501316
vt 0.625000 0.736603
vt 0.873461 0.011699
vt 0.751316 0.012678
vt 0.623750 0.737299
vt 0.501645 0.738187
vt 0.248988 0.000042
vt 0.251508 0.011873
vt 0.375928 0.876296
vt 0.499052 0.873936
vt 0.622713 0.751085
vt 0.624869 0.751152
vt 0.624816 0.873869
vt 0.749122 0.000084
vt 0.751030 0.011779
vt 0.623805 0.873891
vt 0.501177 0.875878
vt 0.498727 0.738070
vt 0.248075 0.011930
vt 0.375000 0.738243
vt 0.376977 0.738316
vt 0.498472 0.738070
vt 0.498613 0.738252
vt 0.500000 0.749934
vt 0.498611 0.749910
vt 0.376521 0.750000
vt 0.372024 0.011930
vt 0.375000 0.021036
vt 0.375000 0.243083
vt 0.246211 0.011930
vt 0.375000 0.242867
vt 0.370637 0.250000
vt 0.254020 0.250000
vt 0.255442 0.250000
vt 0.244436 0.250000
vt 0.126871 0.250000
vt 0.125000 0.015146
vt 0.129589 0.250000
vt 0.375000 0.242867
vt 0.370705 0.011930
vt 0.245726 0.011930
vt 0.244813 0.019134
vt 0.369064 0.240279
vt 0.255442 0.250000
vt 0.244461 0.244956
vt 0.129589 0.250000
vt 0.125000 0.019313
vt 0.129679 0.244882
vt 0.375533 0.000085
vt 0.376041 0.000124
vt 0.498717 0.000000
vt 0.500000 0.000000
vt 0.501635 0.000087
vt 0.375000 0.251429
vt 0.376008 0.248832
vt 0.376621 0.251503
vt 0.498845 0.248863
vt 0.502231 0.248709
vt 0.500984 0.251640
vt 0.375000 0.498950
vt 0.375000 0.496864
vt 0.376209 0.499094
vt 0.376091 0.500836
vt 0.499047 0.499105
vt 0.501034 0.498936
vt 0.501942 0.500710
vt 0.125424 0.000040
vt 0.125521 0.000050
vt 0.126020 0.000036
vt 0.499010 0.750000
vt 0.500000 0.749936
vt 0.501588 0.749833
vt 0.502922 0.751085
vt 0.375000 0.014642
vt 0.372405 0.011930
vt 0.376040 0.011856
vt 0.625905 0.000119
vt 0.626130 0.000085
vt 0.626038 0.011856
vt 0.625898 0.012867
vt 0.375000 0.375000
vt 0.376260 0.373596
vt 0.622452 0.248679
vt 0.625000 0.251084
vt 0.625000 0.372030
vt 0.625000 0.375000
vt 0.623511 0.375762
vt 0.125072 0.011930
vt 0.125000 0.011870
vt 0.125968 0.011883
vt 0.623073 0.498937
vt 0.625000 0.499042
vt 0.625000 0.738070
vt 0.625000 0.738070
vt 0.623278 0.738167
vt 0.375177 0.876259
vt 0.375536 0.875000
vt 0.376010 0.873904
vt 0.622998 0.749851
vt 0.625000 0.749832
vt 0.751031 0.000071
vt 0.749002 0.000113
vt 0.750000 0.000191
vt 0.500000 0.738266
vt 0.501290 0.737305
vt 0.501801 0.873891
vt 0.499093 0.876152
vt 0.498843 0.012864
vt 0.501601 0.011802
vt 0.499090 0.376220
vt 0.501441 0.373535
vt 0.749121 0.011856
vt 0.252747 0.011930
vt 0.248989 0.011880
vt 0.376797 0.738070
vt 0.500000 0.738324
vt 0.499010 0.750000
vt 0.375000 0.749828
vt 0.376664 0.749910
vt 0.370705 0.011930
vt 0.375000 0.014703
vt 0.255335 0.011930
vt 0.245726 0.011930
vt 0.253993 0.011930
vt 0.372993 0.250000
vt 0.245646 0.250000
vt 0.128347 0.011930
vt 0.125000 0.019313
vt 0.126364 0.011930
vt 0.125000 0.243883
vt 0.125000 0.243144
vt 0.375000 0.021036
vt 0.369122 0.017668
vt 0.255335 0.011930
vt 0.255813 0.017533
vt 0.370637 0.250000
vt 0.244436 0.250000
vt 0.255854 0.240705
vt 0.129133 0.019243
vt 0.128347 0.011930
vt 0.125000 0.243883
vn 0.000000 -1.000000 0.000000
vn 0.000000 -1.000000 0.000000
vn 0.000000 -1.000000 0.000000
vn 0.000000 -1.000000 0.000000
vn -0.411414 0.064332 0.909176
vn -0.416389 0.067145 0.906704
vn -0.428798 0.071119 0.900596
vn -0.428141 0.073664 0.900705
vn -0.968738 0.199520 0.147439
vn -0.971097 0.196758 0.135119
vn -0.970069 0.199069 0.139062
vn -0.968271 0.200100 0.149702
vn 0.000000 -1.000000 -0.000000
vn 0.000000 -1.000000 -0.000000
vn 0.000000 -1.000000 -0.000000
vn 0.000000 -1.000000 -0.000000
vn 0.218956 -0.053103 0.974289
vn 0.218481 -0.051912 0.974459
vn 0.204825 -0.054747 0.977266
vn 0.215766 -0.054010 0.974950
vn -0.996313 -0.061550 -0.059774
vn -0.996298 -0.061062 -0.060508
vn -0.998208 -0.059797 0.002105
vn -0.996442 -0.061211 -0.057936
vn -0.433211 0.082242 0.897533
vn -0.427165 0.082974 0.900359
vn -0.422944 0.085869 0.902078
vn -0.431147 0.085351 0.898236
vn -0.548658 0.567478 0.613956
vn -0.562221 0.576984 0.592450
vn -0.575691 0.575392 0.580950
vn -0.556876 0.573956 0.600386
vn -0.998588 -0.044868 -0.028429
vn -0.996858 -0.068772 -0.039300
vn -0.997519 -0.060165 -0.036544
vn -0.999568 0.027442 0.010507
vn 0.247425 0.128554 0.960341
vn 0.264500 0.128550 0.955780
vn 0.265245 0.129268 0.955476
vn 0.256898 0.131980 0.957384
vn 0.462547 0.637679 0.615967
vn 0.444170 0.654872 0.611438
vn 0.412492 0.672446 0.614546
vn 0.448424 0.647556 0.616107
vn -0.997140 -0.075451 0.004396
vn -0.997003 -0.077272 0.003651
vn -0.999685 -0.024806 0.003790
vn -0.999978 0.004172 0.005101
vn -0.688615 0.724436 -0.031636
vn -0.687520 0.725538 -0.030175
vn -0.685866 0.726924 -0.034213
vn -0.687399 0.725479 -0.034102
vn -0.297620 0.133362 -0.945324
vn -0.300381 0.134239 -0.944326
vn -0.311782 0.135158 -0.940491
vn -0.312540 0.134930 -0.940273
vn -0.996858 -0.068050 0.040550
vn -0.996655 -0.069725 0.042621
vn -0.996553 -0.070722 0.043355
vn -0.998137 -0.060917 0.003415
vn 0.349074 0.896642 0.272361
vn 0.366458 0.889074 0.274330
vn 0.368003 0.889495 0.270872
vn 0.368003 0.889495 0.270872
vn 0.575301 0.017133 -0.817762
vn 0.580734 0.016546 -0.813926
vn 0.562013 0.017084 -0.826952
vn 0.562040 0.016624 -0.826943
vn 0.000000 -1.000000 -0.000000
vn 0.000000 -1.000000 -0.000000
vn 0.000000 -1.000000 0.000002
vn 0.000000 -1.000000 0.000001
vn 0.000000 -1.000000 0.000000
vn 0.000000 -1.000000 0.000000
vn 0.000000 -1.000000 0.000000
vn 0.000000 -1.000000 0.000000
vn -0.981554 0.123591 -0.145868
vn -0.981649 0.122466 -0.146177
vn -0.981332 0.121498 -0.149085
vn -0.981286 0.121464 -0.149413
vn -0.970911 0.066210 -0.230104
vn -0.968264 0.068462 -0.240370
vn -0.968264 0.068462 -0.240370
vn -0.969289 0.067620 -0.236444
vn 0.416583 0.203423 -0.886046
vn 0.413687 0.204124 -0.887241
vn 0.427404 0.205337 -0.880433
vn 0.453016 0.209618 -0.866509
vn 0.811058 0.246400 -0.530539
vn 0.838458 0.254462 -0.481909
vn 0.840341 0.256289 -0.477643
vn 0.835933 0.258386 -0.484203
vn 0.000000 -1.000000 0.000000
vn 0.000000 -1.000000 0.000000
vn 0.000000 -1.000000 0.000000
vn 0.000000 -1.000000 0.000000
vn -0.998911 -0.039676 -0.024557
vn -0.999070 -0.036242 -0.023365
vn -0.999037 -0.039040 -0.020032
vn -0.999613 -0.023363 -0.015078
vn 0.974268 0.197737 0.108177
vn 0.974820 0.195756 0.106799
vn 0.974319 0.196613 0.109749
vn 0.974022 0.197968 0.109954
vn 0.994628 0.002391 0.103487
vn 0.994634 0.001379 0.103446
vn 0.994473 0.001611 0.104977
vn 0.994485 0.003148 0.104829
vn 0.999997 0.000669 0.002446
vn 0.999946 0.001163 -0.010362
vn 0.999965 0.003902 -0.007469
vn 0.999995 0.000395 0.003023
vn -0.183253 0.192793 -0.963976
vn -0.188700 0.192661 -0.962951
vn -0.200907 0.191090 -0.960792
vn -0.190289 0.191136 -0.962942
vn -0.999295 -0.037522 0.001314
vn -0.999258 -0.038373 0.003285
vn -0.999206 -0.039647 0.003982
vn -0.999527 -0.030612 0.002985
vn 0.976579 0.141274 -0.162281
vn 0.976144 0.143391 -0.163036
vn 0.975119 0.141792 -0.170408
vn 0.975516 0.141149 -0.168660
vn -0.256020 0.185811 -0.948645
vn -0.251423 0.185527 -0.949930
vn -0.266676 0.183928 -0.946073
vn -0.265716 0.184331 -0.946265
vn -0.668020 0.673396 -0.316680
vn -0.680973 0.678560 -0.275378
vn -0.691972 0.667928 -0.273947
vn -0.738193 0.598472 -0.311293
vn -0.717320 -0.087419 -0.691238
vn -0.675848 -0.078370 -0.732863
vn -0.698731 -0.031145 -0.714706
vn -0.694351 -0.044748 -0.718244
vn -0.630376 0.695043 0.345748
vn -0.615705 0.691386 0.378013
vn -0.705765 0.610600 0.359253
vn -0.664242 0.670516 0.330441
vn -0.644463 -0.686521 -0.336683
vn -0.637196 -0.692700 -0.337858
vn -0.626545 -0.686255 -0.369452
vn -0.695976 -0.624350 -0.354688
vn -0.699153 -0.714486 0.026348
vn -0.643726 -0.765191 0.009961
vn -0.644191 -0.764481 -0.024234
vn -0.666738 -0.744890 -0.024485
vn -0.659566 -0.187654 0.727845
vn -0.659188 -0.229199 0.716197
vn -0.689797 -0.228073 0.687141
vn -0.685250 -0.192238 0.702479
vn -0.994020 -0.100250 -0.043281
vn -0.994979 -0.098461 -0.017975
vn -0.998761 -0.047595 -0.014547
vn -0.997920 -0.055212 -0.033283
vn -0.995952 -0.088110 -0.017792
vn -0.995977 -0.089601 0.001487
vn -0.998594 -0.046094 0.026181
vn -0.999109 -0.041945 -0.004767
vn -0.768633 -0.632727 0.094121
vn -0.768633 -0.632727 0.094121
vn -0.768593 -0.633292 0.090588
vn -0.768588 -0.633360 0.090158
vn -0.178352 -0.713791 0.677269
vn -0.178352 -0.713791 0.677269
vn -0.176523 -0.714489 0.677011
vn -0.175943 -0.714710 0.676929
vn 0.133552 -0.729224 0.671115
vn 0.134824 -0.728900 0.671213
vn 0.138922 -0.727846 0.671521
vn 0.138922 -0.727846 0.671521
vn -0.878321 -0.043857 0.476055
vn -0.878694 -0.041728 0.475558
vn -0.886842 -0.038711 0.460448
vn -0.912108 0.359561 0.196916
vn 0.745402 0.157511 0.647739
vn 0.005213 0.747907 0.663784
vn -0.012825 0.756799 0.653522
vn -0.642458 0.533500 -0.550113
vn -0.642458 0.533500 -0.550113
vn -0.642458 0.533500 -0.550113
vn -0.642458 0.533500 -0.550113
vn -0.816572 0.085375 -0.570895
vn -0.817106 0.088228 -0.569697
vn -0.815055 0.084362 -0.573209
vn -0.194040 0.967261 0.163570
vn -0.194040 0.967261 0.163570
vn -0.194871 0.966284 0.168287
vn 0.688420 0.582566 -0.432082
vn 0.688420 0.582566 -0.432081
vn 0.826653 0.559433 -0.060657
vn -0.728111 -0.672703 -0.131622
vn -0.727250 -0.673428 -0.132675
vn -0.728446 -0.672421 -0.131212
vn -0.728446 -0.672421 -0.131212
vn -0.714601 -0.669377 -0.203177
vn -0.714512 -0.669743 -0.202279
vn -0.715113 -0.669034 -0.202500
vn -0.715849 -0.668831 -0.200564
vn 0.386367 -0.679653 -0.623531
vn 0.378013 -0.633545 -0.675076
vn 0.070043 -0.658147 -0.749625
vn 0.376094 -0.626214 -0.682941
vn 0.723953 -0.635004 -0.269559
vn 0.675122 -0.680328 -0.285243
vn 0.733084 -0.626012 -0.265890
vn 0.737746 -0.647363 -0.191445
vn 0.769519 -0.633142 0.083497
vn 0.769519 -0.633143 0.083497
vn 0.769464 -0.633555 0.080827
vn 0.769469 -0.633518 0.081072
vn 0.735417 0.097057 0.670628
vn 0.735417 0.097057 0.670628
vn 0.735173 0.097524 0.670828
vn 0.735033 0.097793 0.670942
vn 0.760021 0.110746 0.640393
vn 0.760151 0.110676 0.640251
vn 0.777603 0.157221 0.608782
vn 0.805027 0.256618 0.534863
vn 0.804993 0.258526 0.533995
vn 0.845953 0.519656 0.119666
vn 0.845957 0.519761 0.119185
vn -0.383443 0.155042 -0.910458
vn -0.398824 0.166060 -0.901866
vn 0.738351 -0.658860 -0.144018
vn 0.738919 -0.658737 -0.141648
vn 0.738600 -0.658839 -0.142834
vn -0.429009 0.186661 -0.883804
vn -0.203084 -0.638032 -0.742746
vn -0.203539 -0.638269 -0.742418
vn -0.203539 -0.638269 -0.742418
vn -0.689499 -0.390852 0.609776
vn -0.689498 -0.390852 0.609776
vn -0.689499 -0.390852 0.609776
vn -0.114939 0.707483 -0.697321
vn -0.114939 0.707483 -0.697321
vn -0.114939 0.707483 -0.697321
vn -0.114939 0.707483 -0.697321
vn 0.399992 -0.850733 -0.340969
vn 0.639501 -0.482541 0.598492
vn 0.639501 -0.482541 0.598492
vn 0.639501 -0.482541 0.598492
vn -0.826221 0.106000 -0.553283
vn -0.826221 0.106000 -0.553283
vn -0.674167 -0.418706 -0.608428
vn -0.674167 -0.418706 -0.608428
vn -0.674167 -0.418706 -0.608428
s 1
g obelisk02
usemtl initialShadingGroup
f 72/67/1 87/165/2 4/1/3 2/12/4
s 2
f 7/19/5 90/38/6 36/134/7 3/108/8
f 35/36/9 104/66/10 69/2/11 1/14/12
s 1
f 86/75/13 78/3/14 38/17/15 5/15/16
s 2
f 40/39/17 42/40/18 91/167/19 6/111/20
f 127/87/21 120/179/22 33/132/23 9/20/24
f 37/37/25 89/166/26 12/115/27 10/113/28
f 15/23/29 94/46/30 47/140/31 11/114/32
f 46/44/33 131/91/34 128/183/35 8/4/36
f 92/41/37 41/42/38 49/141/39 13/116/40
f 51/47/41 55/51/42 95/169/43 14/117/44
f 139/94/45 132/184/46 45/5/47 17/24/48
f 48/45/49 93/168/50 20/122/51 18/120/52
f 23/29/53 82/55/54 58/27/55 19/121/56
f 57/53/57 135/95/58 140/189/59 16/6/60
f 96/52/61 54/145/62 62/149/63 21/123/64
f 64/58/65 68/63/66 83/163/67 22/124/68
s 1
f 116/84/69 111/175/70 28/128/71 25/30/72
f 32/35/73 88/68/74 71/156/75 26/31/76
s 2
f 70/65/77 103/172/78 61/148/79 27/127/80
f 60/56/81 106/78/82 114/176/83 24/7/84
f 113/82/85 108/174/86 80/162/87 29/129/88
f 84/64/89 67/153/90 73/157/91 30/130/92
s 1
f 75/69/93 79/74/94 85/164/95 31/131/96
s 2
f 119/85/97 124/182/98 101/171/99 34/133/100
f 77/72/101 98/170/102 43/137/103 39/136/104
f 97/49/105 52/8/106 50/43/107 44/138/108
f 100/62/109 65/9/110 63/10/111 53/48/112
f 81/76/113 110/80/114 107/173/115 59/54/116
f 102/77/117 123/88/118 136/187/119 56/57/120
f 99/73/121 76/159/122 74/11/123 66/61/124
f 109/81/125 112/83/126 115/177/127 105/79/128
f 143/98/129 146/192/130 121/180/131 118/178/132
f 126/89/133 150/97/134 141/190/135 117/86/136
f 145/99/137 157/198/138 133/185/139 122/181/140
f 130/92/141 154/102/142 148/194/143 125/90/144
f 138/96/145 160/104/146 151/195/147 129/93/148
f 156/105/149 158/199/150 137/188/151 134/186/152
f 149/101/153 153/196/154 147/193/155 142/191/156
f 152/103/157 159/106/158 155/197/159 144/100/160
s 27
f 2/12/161 1/13/162 69/154/163 72/67/164
s 28
f 3/108/165 2/107/166 4/109/167 7/19/168
s 2
f 1/14/12 3/108/8 36/134/7 35/36/9
s 1
f 5/15/16 4/1/3 87/165/2 86/75/13
s 28
f 6/16/169 5/15/170 38/17/171 40/18/172
s 2
f 7/19/5 6/111/20 91/167/19 90/38/6
f 9/20/24 8/4/36 128/183/35 127/87/21
f 10/113/173 9/20/174 33/132/23 37/37/175
f 11/114/32 10/113/28 12/115/27 15/23/29
f 8/21/36 11/114/176 47/140/31 46/22/33
f 13/116/40 12/115/27 89/166/26 92/41/37
f 14/117/44 13/116/40 49/141/177 51/47/41
f 15/23/178 14/117/44 95/169/43 94/46/179
f 17/24/48 16/6/60 140/189/59 139/94/45
f 18/120/52 17/119/48 45/25/47 48/45/49
s off
f 19/121/180 18/120/181 20/122/182 23/29/183
s 2
f 16/26/60 19/121/184 58/27/185 57/28/186
f 21/123/187 20/122/188 93/168/189 96/52/61
f 22/124/190 21/123/191 62/149/192 64/58/65
f 23/29/53 22/124/68 83/163/67 82/55/54
s 27
f 25/30/193 24/7/194 114/176/195 116/84/196
s 1
f 26/31/76 25/30/72 28/128/71 32/35/73
s 27
f 27/127/197 26/126/198 71/32/199 70/65/200
s 2
f 24/33/84 27/127/80 61/148/79 60/34/81
s 32
f 29/129/201 28/128/202 111/175/203 113/82/204
s 2
f 30/130/92 29/129/88 80/162/87 84/64/89
s 32
f 31/131/205 30/130/206 73/157/207 75/69/208
s 1
f 32/35/73 31/131/96 85/164/95 88/68/74
s 2
f 34/133/100 33/132/23 120/179/22 119/85/97
f 35/36/9 34/133/100 101/171/99 104/66/10
f 37/37/25 36/134/7 90/38/6 89/166/26
s 32
f 39/136/209 38/135/210 78/160/211 77/72/212
s 2
f 40/39/213 39/136/214 43/137/215 42/40/216
f 42/40/18 41/42/38 92/41/37 91/167/19
f 44/138/108 43/137/103 98/170/102 97/49/105
f 41/42/217 44/138/218 50/43/219 49/141/177
f 46/44/33 45/5/47 132/184/46 131/91/34
f 48/45/49 47/140/31 94/46/30 93/168/50
f 51/47/41 50/142/219 52/143/220 55/51/221
f 53/48/112 52/8/106 97/49/105 100/62/109
f 54/145/222 53/50/223 63/150/111 62/149/192
f 55/51/42 54/145/62 96/52/61 95/169/43
f 57/53/57 56/57/120 136/187/119 135/95/58
f 59/54/116 58/27/55 82/55/54 81/76/113
f 60/56/224 59/54/116 107/173/115 106/78/225
f 56/57/120 61/148/79 103/172/78 102/77/117
f 64/58/65 63/59/111 65/60/110 68/63/66
f 66/61/124 65/9/110 100/62/109 99/73/121
f 67/153/90 66/152/124 74/158/123 73/157/91
f 68/63/66 67/153/90 84/64/89 83/163/67
f 70/65/77 69/2/11 104/66/10 103/172/78
s 1
f 72/67/1 71/156/75 88/68/74 87/165/2
s 32
f 75/69/208 74/70/226 76/71/227 79/74/228
s 2
f 77/72/101 76/159/122 99/73/121 98/170/102
s 1
f 79/74/94 78/3/14 86/75/13 85/164/95
s 2
f 81/76/113 80/162/87 108/174/86 110/80/114
f 102/77/117 101/171/99 124/182/98 123/88/118
f 106/78/225 105/79/128 115/177/127 114/176/229
f 105/79/128 107/173/115 110/80/114 109/81/125
f 109/81/125 108/174/86 113/82/85 112/83/126
s 32
f 112/83/230 111/175/203 116/84/231 115/177/232
s 2
f 118/178/132 117/86/136 141/190/135 143/98/129
f 119/85/97 118/178/132 121/180/131 124/182/98
f 117/86/136 120/179/22 127/87/21 126/89/133
f 122/181/140 121/180/131 146/192/130 145/99/137
f 123/88/118 122/181/140 133/185/139 136/187/119
f 126/89/133 125/90/144 148/194/143 150/97/134
f 125/90/144 128/183/35 131/91/34 130/92/141
f 130/92/141 129/93/148 151/195/147 154/102/142
f 129/93/148 132/184/46 139/94/45 138/96/145
f 134/186/152 133/185/139 157/198/138 156/105/149
f 135/95/58 134/186/152 137/188/151 140/189/59
f 138/96/145 137/188/151 158/199/150 160/104/146
f 142/191/156 141/190/135 150/97/134 149/101/153
f 143/98/129 142/191/156 147/193/155 146/192/130
f 145/99/137 144/100/160 155/197/159 157/198/138
f 144/100/160 147/193/155 153/196/154 152/103/157
f 149/101/153 148/194/143 154/102/142 153/196/154
f 152/103/157 151/195/147 160/104/146 159/106/158
f 156/105/149 155/197/159 159/106/158 158/199/150
s off
f 1/14/233 2/107/234 3/108/235
s 28
f 4/109/167 5/110/170 6/111/169 7/19/168
s 2
f 8/21/36 9/112/174 10/113/173 11/114/176
f 12/115/27 13/116/40 14/117/44 15/23/178
f 16/118/60 17/119/48 18/120/52 19/121/184
s off
f 20/122/236 21/123/237 22/124/238 23/29/239
s 27
f 24/33/194 25/125/193 26/126/198 27/127/197
s 32
f 28/128/202 29/129/201 30/130/206 31/131/205 32/35/240
s 2
f 33/132/23 34/133/100 35/36/9 36/134/7 37/37/175
s off
f 38/135/241 39/136/242 40/39/243
s 2
f 41/42/217 42/40/216 43/137/215 44/138/218
f 45/139/47 46/22/33 47/140/31 48/45/49
f 49/141/177 50/142/219 51/47/41
f 52/143/220 53/144/223 54/145/222 55/51/221
f 56/57/244 57/53/186 58/146/185 59/147/245 60/34/81 61/148/79
f 62/149/192 63/150/111 64/58/65
f 65/151/110 66/152/124 67/153/90 68/63/66
s 27
f 69/154/163 70/155/200 71/156/199 72/67/164
s 32
f 73/157/207 74/158/226 75/69/208
f 76/159/227 77/72/212 78/160/211 79/161/228
s 2
f 80/162/87 81/76/113 82/55/54 83/163/67 84/64/89
s 1
f 85/164/95 86/75/13 87/165/2 88/68/74
s 2
f 89/166/26 90/38/6 91/167/19 92/41/37
f 93/168/189 94/46/179 95/169/43 96/52/61
f 97/49/105 98/170/102 99/73/121 100/62/109
f 101/171/99 102/77/117 103/172/78 104/66/10
f 105/79/128 106/78/225 107/173/115
f 108/174/86 109/81/125 110/80/114
s 32
f 111/175/203 112/83/230 113/82/204
s off
f 114/176/246 115/177/247 116/84/248
s 2
f 117/86/136 118/178/132 119/85/97 120/179/22
f 121/180/131 122/181/140 123/88/118 124/182/98
f 125/90/144 126/89/133 127/87/21 128/183/35
f 129/93/148 130/92/141 131/91/34 132/184/46
f 133/185/139 134/186/152 135/95/58 136/187/119
f 137/188/151 138/96/145 139/94/45 140/189/59
f 141/190/135 142/191/156 143/98/129
f 144/100/160 145/99/137 146/192/130 147/193/155
f 148/194/143 149/101/153 150/97/134
f 151/195/147 152/103/157 153/196/154 154/102/142
f 155/197/159 156/105/149 157/198/138
f 158/199/150 159/106/158 160/104/146
